<?xml version="1.0" encoding="UTF-8"?>
<svg width="1000px" height="550px" viewBox="0 0 1000 550" version="1.1" xmlns="http://www.w3.org/2000/svg" xmlns:xlink="http://www.w3.org/1999/xlink">
    <!-- Generator: Sketch 54.1 (76490) - https://sketchapp.com -->
    <title>bgImg3</title>
    <desc>Created with Sketch.</desc>
    <g id="Page-1" stroke="none" stroke-width="1" fill="none" fill-rule="evenodd">
        <g id="bgImg3" fill-rule="nonzero">
            <rect id="Rectangle" fill="#ECF0F1" x="0" y="0" width="1000" height="550"></rect>
            <polygon id="Triangle" fill-opacity="0.1" fill="#BDC3C7" transform="translate(750.000000, 275.000000) rotate(180.000000) translate(-750.000000, -275.000000) " points="500 0 1000 550 500 550"></polygon>
            <polygon id="Triangle" fill-opacity="0.2" fill="#BDC3C7" transform="translate(807.000000, 337.500000) rotate(180.000000) translate(-807.000000, -337.500000) " points="614 125 1000 550 614 550"></polygon>
            <polygon id="Triangle" fill-opacity="0.3" fill="#BDC3C7" transform="translate(823.000000, 373.000000) scale(1, -1) rotate(180.000000) translate(-823.000000, -373.000000) " points="646 196 1000 550 646 550"></polygon>
            <polygon id="Triangle" fill-opacity="0.1" fill="#BDC3C7" transform="translate(250.000000, 275.000000) scale(-1, -1) rotate(180.000000) translate(-250.000000, -275.000000) " points="5.68434189e-14 0 500 550 5.68434189e-14 550"></polygon>
            <polygon id="Triangle" fill-opacity="0.2" fill="#BDC3C7" transform="translate(193.000000, 212.500000) scale(-1, -1) rotate(180.000000) translate(-193.000000, -212.500000) " points="0 0 386 425 0 425"></polygon>
            <polygon id="Triangle" fill-opacity="0.3" fill="#BDC3C7" transform="translate(177.000000, 177.000000) scale(-1, 1) rotate(180.000000) translate(-177.000000, -177.000000) " points="2.84217094e-14 2.84217094e-14 354 354 2.84217094e-14 354"></polygon>
        </g>
    </g>
</svg>